<svg xmlns="http://www.w3.org/2000/svg" xmlns:xlink="http://www.w3.org/1999/xlink" width="500" zoomAndPan="magnify" viewBox="0 0 375 374.999991" height="500" preserveAspectRatio="xMidYMid meet" version="1.0"><defs><g/></defs><path stroke-linecap="butt" transform="matrix(0, 0.75, -0.75, 0, 109.500451, 93.53157)" fill="none" stroke-linejoin="miter" d="M -0.000426477 0.500601 L 206.468337 0.500601 " stroke="#ffffff" stroke-width="1" stroke-opacity="1" stroke-miterlimit="4"/><path stroke-linecap="butt" transform="matrix(0, 0.75, -0.75, 0, 266.246881, 93.532715)" fill="none" stroke-linejoin="miter" d="M -0.00195288 0.50105 L 205.268894 0.50105 " stroke="#ffffff" stroke-width="1" stroke-opacity="1" stroke-miterlimit="4"/><path stroke-linecap="butt" transform="matrix(0.75, 0, 0, 0.75, 109.426169, 93.605245)" fill="none" stroke-linejoin="miter" d="M -0.000516352 0.500298 L 55.124487 0.500298 " stroke="#ffffff" stroke-width="1" stroke-opacity="1" stroke-miterlimit="4"/><path stroke-linecap="butt" transform="matrix(-0.75, 0, 0, -0.75, 265.543463, 247.539769)" fill="none" stroke-linejoin="miter" d="M 0.000659084 0.500941 L 92.344415 0.500941 " stroke="#ffffff" stroke-width="1" stroke-opacity="1" stroke-miterlimit="4"/><g fill="#ffffff" fill-opacity="1"><g transform="translate(152.881436, 97.03011)"><g><path d="M 5.84375 0.359375 C 4.757812 0.359375 3.816406 0.140625 3.015625 -0.296875 C 2.210938 -0.742188 1.59375 -1.367188 1.15625 -2.171875 C 0.71875 -2.984375 0.5 -3.9375 0.5 -5.03125 C 0.5 -6.132812 0.703125 -7.085938 1.109375 -7.890625 C 1.523438 -8.691406 2.109375 -9.3125 2.859375 -9.75 C 3.609375 -10.195312 4.5 -10.421875 5.53125 -10.421875 C 6.257812 -10.421875 6.921875 -10.273438 7.515625 -9.984375 C 8.109375 -9.691406 8.609375 -9.285156 9.015625 -8.765625 C 9.429688 -8.242188 9.71875 -7.617188 9.875 -6.890625 L 8.734375 -6.625 C 8.585938 -7.46875 8.222656 -8.132812 7.640625 -8.625 C 7.054688 -9.125 6.351562 -9.375 5.53125 -9.375 C 4.75 -9.375 4.066406 -9.195312 3.484375 -8.84375 C 2.910156 -8.488281 2.46875 -7.984375 2.15625 -7.328125 C 1.84375 -6.679688 1.6875 -5.914062 1.6875 -5.03125 C 1.695312 -4.15625 1.867188 -3.390625 2.203125 -2.734375 C 2.546875 -2.078125 3.023438 -1.570312 3.640625 -1.21875 C 4.265625 -0.875 5 -0.703125 5.84375 -0.703125 C 6.519531 -0.703125 7.125 -0.835938 7.65625 -1.109375 C 8.1875 -1.378906 8.625 -1.757812 8.96875 -2.25 C 9.3125 -2.75 9.53125 -3.332031 9.625 -4 L 10.765625 -3.71875 C 10.640625 -2.882812 10.351562 -2.160156 9.90625 -1.546875 C 9.457031 -0.941406 8.882812 -0.472656 8.1875 -0.140625 C 7.5 0.191406 6.71875 0.359375 5.84375 0.359375 Z M 5.84375 0.359375 "/></g></g></g><g fill="#ffffff" fill-opacity="1"><g transform="translate(168.225808, 97.03011)"><g><path d="M 0.859375 0 L 0.859375 -10.0625 L 2.046875 -10.0625 L 2.046875 -5.765625 L 7.609375 -5.765625 L 7.609375 -10.0625 L 8.796875 -10.0625 L 8.796875 0 L 7.609375 0 L 7.609375 -4.71875 L 2.046875 -4.71875 L 2.046875 0 Z M 0.859375 0 "/></g></g></g><g fill="#ffffff" fill-opacity="1"><g transform="translate(182.170303, 97.03011)"><g><path d="M 0.140625 0 L 4.0625 -10.0625 L 5.484375 -10.0625 L 9.375 0 L 8.109375 0 L 7.203125 -2.40625 L 2.34375 -2.40625 L 1.40625 0 Z M 2.6875 -3.46875 L 6.84375 -3.46875 L 4.78125 -8.890625 L 4.75 -8.890625 Z M 2.6875 -3.46875 "/></g></g></g><g fill="#ffffff" fill-opacity="1"><g transform="translate(195.971952, 97.03011)"><g><path d="M 0.859375 0 L 0.859375 -10.0625 L 2.4375 -10.0625 L 7.59375 -1.53125 L 7.625 -1.53125 L 7.625 -10.0625 L 8.828125 -10.0625 L 8.828125 0 L 7.234375 0 L 2.078125 -8.53125 L 2.046875 -8.53125 L 2.046875 0 Z M 0.859375 0 "/></g></g></g><g fill="#ffffff" fill-opacity="1"><g transform="translate(209.94502, 97.03011)"><g><path d="M 3.515625 0 L 3.515625 -9.015625 L 0.140625 -9.015625 L 0.140625 -10.0625 L 8.0625 -10.0625 L 8.0625 -9.015625 L 4.703125 -9.015625 L 4.703125 0 Z M 3.515625 0 "/></g></g></g><g fill="#ffffff" fill-opacity="1"><g transform="translate(222.446789, 97.03011)"><g><path d="M 0.859375 0 L 0.859375 -10.0625 L 7.734375 -10.0625 L 7.734375 -9.015625 L 2.015625 -9.015625 L 2.015625 -5.71875 L 7.171875 -5.71875 L 7.171875 -4.6875 L 2.015625 -4.6875 L 2.015625 -1.0625 L 7.890625 -1.0625 L 7.890625 0 Z M 0.859375 0 "/></g></g></g><g fill="#ffffff" fill-opacity="1"><g transform="translate(234.977132, 97.03011)"><g><path d="M 8.140625 0.28125 C 7.742188 0.28125 7.425781 0.171875 7.1875 -0.046875 C 6.957031 -0.265625 6.789062 -0.546875 6.6875 -0.890625 L 6.0625 -3 C 5.957031 -3.375 5.769531 -3.675781 5.5 -3.90625 C 5.226562 -4.132812 4.921875 -4.25 4.578125 -4.25 L 2.046875 -4.25 L 2.046875 0 L 0.859375 0 L 0.859375 -10.0625 L 5.375 -10.0625 C 6.0625 -10.0625 6.675781 -9.9375 7.21875 -9.6875 C 7.757812 -9.445312 8.179688 -9.109375 8.484375 -8.671875 C 8.785156 -8.242188 8.9375 -7.75 8.9375 -7.1875 C 8.9375 -6.488281 8.691406 -5.890625 8.203125 -5.390625 C 7.722656 -4.898438 7.0625 -4.597656 6.21875 -4.484375 L 6.21875 -4.46875 C 6.488281 -4.332031 6.707031 -4.148438 6.875 -3.921875 C 7.050781 -3.691406 7.179688 -3.421875 7.265625 -3.109375 L 7.765625 -1.296875 C 7.816406 -1.128906 7.890625 -0.988281 7.984375 -0.875 C 8.085938 -0.769531 8.21875 -0.71875 8.375 -0.71875 C 8.53125 -0.71875 8.6875 -0.773438 8.84375 -0.890625 C 9 -1.015625 9.132812 -1.175781 9.25 -1.375 L 9.859375 -0.671875 C 9.648438 -0.390625 9.398438 -0.160156 9.109375 0.015625 C 8.816406 0.191406 8.492188 0.28125 8.140625 0.28125 Z M 2.046875 -5.3125 L 5.375 -5.3125 C 6.070312 -5.3125 6.640625 -5.484375 7.078125 -5.828125 C 7.523438 -6.171875 7.75 -6.613281 7.75 -7.15625 C 7.75 -7.695312 7.523438 -8.140625 7.078125 -8.484375 C 6.640625 -8.835938 6.070312 -9.015625 5.375 -9.015625 L 2.046875 -9.015625 Z M 2.046875 -5.3125 "/></g></g></g><g fill="#ffffff" fill-opacity="1"><g transform="translate(249.121609, 97.03011)"><g><path d="M 0.140625 0 L 4.0625 -10.0625 L 5.484375 -10.0625 L 9.375 0 L 8.109375 0 L 7.203125 -2.40625 L 2.34375 -2.40625 L 1.40625 0 Z M 2.6875 -3.46875 L 6.84375 -3.46875 L 4.78125 -8.890625 L 4.75 -8.890625 Z M 2.6875 -3.46875 "/></g></g></g><g fill="#ffffff" fill-opacity="1"><g transform="translate(116.087171, 250.211869)"><g><path d="M 0.859375 0 L 0.859375 -10.015625 L 1.4375 -10.015625 L 1.4375 -0.5625 L 7.046875 -0.5625 L 7.046875 0 Z M 0.859375 0 "/></g></g></g><g fill="#ffffff" fill-opacity="1"><g transform="translate(127.550103, 250.211869)"><g><path d="M 0.140625 0 L 4.09375 -10.015625 L 4.859375 -10.015625 L 8.8125 0 L 8.1875 0 L 7.171875 -2.59375 L 1.78125 -2.59375 L 0.765625 0 Z M 1.984375 -3.15625 L 6.96875 -3.15625 L 4.5 -9.4375 L 4.46875 -9.4375 Z M 1.984375 -3.15625 "/></g></g></g><g fill="#ffffff" fill-opacity="1"><g transform="translate(140.782703, 250.211869)"><g><path d="M 0.140625 0 L 0.140625 -0.65625 L 7.125 -9.46875 L 0.28125 -9.46875 L 0.28125 -10.015625 L 7.75 -10.015625 L 7.75 -9.359375 L 0.78125 -0.546875 L 7.890625 -0.546875 L 7.890625 0 Z M 0.140625 0 "/></g></g></g><g fill="#ffffff" fill-opacity="1"><g transform="translate(153.101927, 250.211869)"><g><path d="M 0.140625 0 L 4.09375 -10.015625 L 4.859375 -10.015625 L 8.8125 0 L 8.1875 0 L 7.171875 -2.59375 L 1.78125 -2.59375 L 0.765625 0 Z M 1.984375 -3.15625 L 6.96875 -3.15625 L 4.5 -9.4375 L 4.46875 -9.4375 Z M 1.984375 -3.15625 "/></g></g></g><g fill="#ffffff" fill-opacity="1"><g transform="translate(166.334528, 250.211869)"><g><path d="M 8.09375 0.28125 C 7.757812 0.28125 7.503906 0.175781 7.328125 -0.03125 C 7.160156 -0.25 7.03125 -0.523438 6.9375 -0.859375 L 6.359375 -3.03125 C 6.253906 -3.445312 6.070312 -3.796875 5.8125 -4.078125 C 5.550781 -4.359375 5.175781 -4.5 4.6875 -4.5 L 1.4375 -4.5 L 1.4375 0 L 0.859375 0 L 0.859375 -10.015625 L 5.296875 -10.015625 C 6.285156 -10.015625 7.070312 -9.765625 7.65625 -9.265625 C 8.25 -8.773438 8.546875 -8.109375 8.546875 -7.265625 C 8.546875 -6.578125 8.3125 -5.988281 7.84375 -5.5 C 7.375 -5.007812 6.742188 -4.710938 5.953125 -4.609375 L 5.953125 -4.59375 C 6.210938 -4.445312 6.421875 -4.238281 6.578125 -3.96875 C 6.742188 -3.695312 6.875 -3.390625 6.96875 -3.046875 L 7.53125 -0.953125 C 7.570312 -0.734375 7.640625 -0.5625 7.734375 -0.4375 C 7.828125 -0.3125 7.960938 -0.25 8.140625 -0.25 C 8.460938 -0.25 8.738281 -0.4375 8.96875 -0.8125 L 9.359375 -0.421875 C 9.171875 -0.171875 8.96875 0.00390625 8.75 0.109375 C 8.53125 0.222656 8.3125 0.28125 8.09375 0.28125 Z M 1.4375 -5.0625 L 5.296875 -5.0625 C 6.097656 -5.0625 6.738281 -5.257812 7.21875 -5.65625 C 7.695312 -6.050781 7.9375 -6.582031 7.9375 -7.25 C 7.9375 -7.914062 7.695312 -8.445312 7.21875 -8.84375 C 6.738281 -9.25 6.097656 -9.453125 5.296875 -9.453125 L 1.4375 -9.453125 Z M 1.4375 -5.0625 "/></g></g></g><g fill="#ffffff" fill-opacity="1"><g transform="translate(179.966732, 250.211869)"><g><path d="M 0.859375 0 L 0.859375 -10.015625 L 4 -10.015625 C 5.707031 -10.015625 7.015625 -9.582031 7.921875 -8.71875 C 8.828125 -7.851562 9.28125 -6.613281 9.28125 -5 C 9.28125 -3.382812 8.828125 -2.144531 7.921875 -1.28125 C 7.015625 -0.425781 5.707031 0 4 0 Z M 1.4375 -0.5625 L 4 -0.5625 C 5.5 -0.5625 6.65625 -0.941406 7.46875 -1.703125 C 8.289062 -2.472656 8.703125 -3.570312 8.703125 -5 C 8.703125 -6.4375 8.289062 -7.535156 7.46875 -8.296875 C 6.65625 -9.066406 5.5 -9.453125 4 -9.453125 L 1.4375 -9.453125 Z M 1.4375 -0.5625 "/></g></g></g><g fill="#ffffff" fill-opacity="1"><g transform="translate(122.507993, 200.582346)"><g><path d="M 60.515625 -11.34375 C 57.546875 -7.425781 53.785156 -4.5625 49.234375 -2.75 C 44.691406 -0.945312 39.457031 -0.046875 33.53125 -0.046875 C 29.101562 -0.046875 24.9375 -0.851562 21.03125 -2.46875 C 17.125 -4.09375 13.6875 -6.472656 10.71875 -9.609375 C 7.757812 -12.742188 5.445312 -16.578125 3.78125 -21.109375 C 2.113281 -25.640625 1.28125 -30.800781 1.28125 -36.59375 C 1.28125 -42.414062 2.125 -47.59375 3.8125 -52.125 C 5.5 -56.65625 7.875 -60.5 10.9375 -63.65625 C 14 -66.8125 17.625 -69.207031 21.8125 -70.84375 C 26.007812 -72.476562 30.628906 -73.296875 35.671875 -73.296875 C 39.210938 -73.296875 42.226562 -73.015625 44.71875 -72.453125 C 47.207031 -71.890625 49.300781 -71.210938 51 -70.421875 C 52.707031 -69.640625 54.164062 -68.890625 55.375 -68.171875 C 56.582031 -67.460938 57.695312 -66.921875 58.71875 -66.546875 C 59.75 -66.171875 60.84375 -66.132812 62 -66.4375 L 58.515625 -57.03125 C 56.847656 -59.757812 55.210938 -62.035156 53.609375 -63.859375 C 52.015625 -65.679688 50.285156 -67.132812 48.421875 -68.21875 C 46.566406 -69.3125 44.4375 -70.097656 42.03125 -70.578125 C 39.632812 -71.054688 36.800781 -71.296875 33.53125 -71.296875 C 31.382812 -71.296875 29.125 -70.851562 26.75 -69.96875 C 24.382812 -69.082031 22.078125 -67.734375 19.828125 -65.921875 C 17.578125 -64.117188 15.539062 -61.835938 13.71875 -59.078125 C 11.894531 -56.316406 10.445312 -53.078125 9.375 -49.359375 C 8.300781 -45.648438 7.765625 -41.445312 7.765625 -36.75 C 7.765625 -30.851562 8.425781 -25.738281 9.75 -21.40625 C 11.082031 -17.082031 12.929688 -13.515625 15.296875 -10.703125 C 17.671875 -7.890625 20.414062 -5.800781 23.53125 -4.4375 C 26.65625 -3.082031 29.988281 -2.40625 33.53125 -2.40625 C 37.71875 -2.40625 41.207031 -2.820312 44 -3.65625 C 46.800781 -4.488281 49.171875 -5.765625 51.109375 -7.484375 C 53.046875 -9.203125 54.800781 -11.410156 56.375 -14.109375 Z M 60.515625 -11.34375 "/></g></g></g><g fill="#ffffff" fill-opacity="1"><g transform="translate(199.066336, 200.582346)"><g><path d="M 49.0625 -0.046875 L 1.28125 -0.046875 C 1.28125 -0.046875 1.457031 -0.21875 1.8125 -0.5625 C 2.164062 -0.90625 2.519531 -1.585938 2.875 -2.609375 C 3.238281 -3.628906 3.421875 -5.144531 3.421875 -7.15625 L 3.421875 -66.5 C 3.421875 -68.539062 3.238281 -70.035156 2.875 -70.984375 C 2.519531 -71.941406 2.164062 -72.566406 1.8125 -72.859375 C 1.457031 -73.148438 1.28125 -73.296875 1.28125 -73.296875 L 11.75 -73.296875 C 11.75 -73.296875 11.578125 -73.15625 11.234375 -72.875 C 10.898438 -72.601562 10.550781 -71.988281 10.1875 -71.03125 C 9.832031 -70.082031 9.65625 -68.585938 9.65625 -66.546875 L 9.65625 -7.15625 C 9.65625 -5.957031 9.722656 -4.941406 9.859375 -4.109375 C 9.992188 -3.273438 10.164062 -2.585938 10.375 -2.046875 L 24.4375 -2.046875 C 29.195312 -2.046875 33.175781 -2.273438 36.375 -2.734375 C 39.582031 -3.191406 42.15625 -3.757812 44.09375 -4.4375 C 46.039062 -5.125 47.507812 -5.832031 48.5 -6.5625 C 49.488281 -7.300781 50.160156 -7.957031 50.515625 -8.53125 C 50.878906 -9.113281 51.078125 -9.488281 51.109375 -9.65625 C 51.109375 -9.65625 51.109375 -9.660156 51.109375 -9.671875 C 51.109375 -9.691406 51.109375 -9.6875 51.109375 -9.65625 Z M 49.0625 -0.046875 "/></g></g></g></svg>